<svg xmlns="http://www.w3.org/2000/svg" xmlns:xlink="http://www.w3.org/1999/xlink" width="500" zoomAndPan="magnify" viewBox="0 0 375 374.999991" height="500" preserveAspectRatio="xMidYMid meet" version="1.0"><defs><clipPath id="32496411cf"><path d="M 127 68.839844 L 292 68.839844 L 292 239 L 127 239 Z M 127 68.839844 " clip-rule="nonzero"/></clipPath><clipPath id="0eb1a0a071"><path d="M 41.335938 69 L 164 69 L 164 282 L 41.335938 282 Z M 41.335938 69 " clip-rule="nonzero"/></clipPath><clipPath id="fbff078f98"><path d="M 91 145 L 359.335938 145 L 359.335938 309.589844 L 91 309.589844 Z M 91 145 " clip-rule="nonzero"/></clipPath></defs><rect x="-37.5" width="450" fill="#ffffff" y="-37.499999" height="449.999989" fill-opacity="1"/><rect x="-37.5" width="450" fill="#ffffff" y="-37.499999" height="449.999989" fill-opacity="1"/><g clip-path="url(#32496411cf)"><path fill="#bd2f34" d="M 246.457031 200.636719 L 216.34375 220.507812 L 167.171875 145.882812 L 127.484375 214.625 L 167.171875 192.238281 L 218.382812 238.171875 L 291.457031 190.097656 C 291.460938 189.746094 291.464844 189.390625 291.464844 189.039062 C 291.464844 122.660156 237.652344 68.84375 171.269531 68.84375 C 170.96875 68.84375 170.671875 68.847656 170.371094 68.847656 L 246.457031 200.636719 " fill-opacity="1" fill-rule="nonzero"/></g><g clip-path="url(#0eb1a0a071)"><path fill="#bd2f34" d="M 41.382812 281.183594 L 163.84375 69.074219 C 100.921875 72.910156 51.078125 125.152344 51.078125 189.039062 C 51.078125 203.953125 53.796875 218.234375 58.761719 231.410156 L 41.382812 281.183594 " fill-opacity="1" fill-rule="nonzero"/></g><g clip-path="url(#fbff078f98)"><path fill="#bd2f34" d="M 216.144531 273.519531 L 167.171875 232.726562 L 91.980469 279.371094 C 113.144531 297.957031 140.890625 309.230469 171.273438 309.230469 C 223.269531 309.230469 267.554688 276.210938 284.304688 229.996094 L 359.1875 145.539062 L 216.144531 273.519531 " fill-opacity="1" fill-rule="nonzero"/></g></svg>