<svg xmlns="http://www.w3.org/2000/svg" xmlns:xlink="http://www.w3.org/1999/xlink" width="500" zoomAndPan="magnify" viewBox="0 0 375 374.999991" height="500" preserveAspectRatio="xMidYMid meet" version="1.0"><defs><clipPath id="c17de00bcb"><path d="M 238 232 L 241 232 L 241 234 L 238 234 Z M 238 232 " clip-rule="nonzero"/></clipPath><clipPath id="6dc2eaf9ae"><path d="M 21.378906 183.246094 L 345.617188 165.027344 L 353.988281 314.042969 L 29.75 332.261719 Z M 21.378906 183.246094 " clip-rule="nonzero"/></clipPath><clipPath id="ee3282eb6d"><path d="M 21.378906 183.246094 L 345.617188 165.027344 L 353.988281 314.042969 L 29.75 332.261719 Z M 21.378906 183.246094 " clip-rule="nonzero"/></clipPath><clipPath id="4e8d2d8504"><path d="M 189 176 L 272 176 L 272 294 L 189 294 Z M 189 176 " clip-rule="nonzero"/></clipPath><clipPath id="5b694b96f0"><path d="M 21.378906 183.246094 L 345.617188 165.027344 L 353.988281 314.042969 L 29.75 332.261719 Z M 21.378906 183.246094 " clip-rule="nonzero"/></clipPath><clipPath id="f11a098e8c"><path d="M 21.378906 183.246094 L 345.617188 165.027344 L 353.988281 314.042969 L 29.75 332.261719 Z M 21.378906 183.246094 " clip-rule="nonzero"/></clipPath><clipPath id="93508e713d"><path d="M 240 232 L 241 232 L 241 233 L 240 233 Z M 240 232 " clip-rule="nonzero"/></clipPath><clipPath id="d4a7760554"><path d="M 21.378906 183.246094 L 345.617188 165.027344 L 353.988281 314.042969 L 29.75 332.261719 Z M 21.378906 183.246094 " clip-rule="nonzero"/></clipPath><clipPath id="e72cad3d3b"><path d="M 21.378906 183.246094 L 345.617188 165.027344 L 353.988281 314.042969 L 29.75 332.261719 Z M 21.378906 183.246094 " clip-rule="nonzero"/></clipPath><clipPath id="96d0d40f71"><path d="M 251 236 L 255 236 L 255 239 L 251 239 Z M 251 236 " clip-rule="nonzero"/></clipPath><clipPath id="a412f6c104"><path d="M 21.378906 183.246094 L 345.617188 165.027344 L 353.988281 314.042969 L 29.75 332.261719 Z M 21.378906 183.246094 " clip-rule="nonzero"/></clipPath><clipPath id="690fb03e2d"><path d="M 21.378906 183.246094 L 345.617188 165.027344 L 353.988281 314.042969 L 29.75 332.261719 Z M 21.378906 183.246094 " clip-rule="nonzero"/></clipPath><clipPath id="6ac9740e46"><path d="M 192 188 L 287 188 L 287 296 L 192 296 Z M 192 188 " clip-rule="nonzero"/></clipPath><clipPath id="471ad82456"><path d="M 21.378906 183.246094 L 345.617188 165.027344 L 353.988281 314.042969 L 29.75 332.261719 Z M 21.378906 183.246094 " clip-rule="nonzero"/></clipPath><clipPath id="5fd3c1797a"><path d="M 21.378906 183.246094 L 345.617188 165.027344 L 353.988281 314.042969 L 29.75 332.261719 Z M 21.378906 183.246094 " clip-rule="nonzero"/></clipPath><clipPath id="92023c00de"><path d="M 255 236 L 256 236 L 256 237 L 255 237 Z M 255 236 " clip-rule="nonzero"/></clipPath><clipPath id="d34c28eb4a"><path d="M 21.378906 183.246094 L 345.617188 165.027344 L 353.988281 314.042969 L 29.75 332.261719 Z M 21.378906 183.246094 " clip-rule="nonzero"/></clipPath><clipPath id="b0e65aab0e"><path d="M 21.378906 183.246094 L 345.617188 165.027344 L 353.988281 314.042969 L 29.75 332.261719 Z M 21.378906 183.246094 " clip-rule="nonzero"/></clipPath><clipPath id="6f6ebe1654"><path d="M 254 236 L 255 236 L 255 237 L 254 237 Z M 254 236 " clip-rule="nonzero"/></clipPath><clipPath id="c516a200ea"><path d="M 21.378906 183.246094 L 345.617188 165.027344 L 353.988281 314.042969 L 29.75 332.261719 Z M 21.378906 183.246094 " clip-rule="nonzero"/></clipPath><clipPath id="565e009d40"><path d="M 21.378906 183.246094 L 345.617188 165.027344 L 353.988281 314.042969 L 29.75 332.261719 Z M 21.378906 183.246094 " clip-rule="nonzero"/></clipPath><clipPath id="72e407f17a"><path d="M 254 236 L 256 236 L 256 237 L 254 237 Z M 254 236 " clip-rule="nonzero"/></clipPath><clipPath id="75dd732d5f"><path d="M 21.378906 183.246094 L 345.617188 165.027344 L 353.988281 314.042969 L 29.75 332.261719 Z M 21.378906 183.246094 " clip-rule="nonzero"/></clipPath><clipPath id="f23cacbc9d"><path d="M 21.378906 183.246094 L 345.617188 165.027344 L 353.988281 314.042969 L 29.75 332.261719 Z M 21.378906 183.246094 " clip-rule="nonzero"/></clipPath><clipPath id="1b83a300ca"><path d="M 210 200 L 305 200 L 305 279 L 210 279 Z M 210 200 " clip-rule="nonzero"/></clipPath><clipPath id="9c3f63116d"><path d="M 21.378906 183.246094 L 345.617188 165.027344 L 353.988281 314.042969 L 29.75 332.261719 Z M 21.378906 183.246094 " clip-rule="nonzero"/></clipPath><clipPath id="a60cc13c30"><path d="M 21.378906 183.246094 L 345.617188 165.027344 L 353.988281 314.042969 L 29.75 332.261719 Z M 21.378906 183.246094 " clip-rule="nonzero"/></clipPath><clipPath id="01b61bda6d"><path d="M 269 246 L 270 246 L 270 247 L 269 247 Z M 269 246 " clip-rule="nonzero"/></clipPath><clipPath id="1e24f29b37"><path d="M 21.378906 183.246094 L 345.617188 165.027344 L 353.988281 314.042969 L 29.75 332.261719 Z M 21.378906 183.246094 " clip-rule="nonzero"/></clipPath><clipPath id="c8ffb160cf"><path d="M 21.378906 183.246094 L 345.617188 165.027344 L 353.988281 314.042969 L 29.75 332.261719 Z M 21.378906 183.246094 " clip-rule="nonzero"/></clipPath><clipPath id="2f8aa96656"><path d="M 264 248 L 265 248 L 265 249 L 264 249 Z M 264 248 " clip-rule="nonzero"/></clipPath><clipPath id="4a0318269e"><path d="M 21.378906 183.246094 L 345.617188 165.027344 L 353.988281 314.042969 L 29.75 332.261719 Z M 21.378906 183.246094 " clip-rule="nonzero"/></clipPath><clipPath id="2aa61ade1a"><path d="M 21.378906 183.246094 L 345.617188 165.027344 L 353.988281 314.042969 L 29.75 332.261719 Z M 21.378906 183.246094 " clip-rule="nonzero"/></clipPath><clipPath id="e2f01a22e7"><path d="M 266 247 L 268 247 L 268 248 L 266 248 Z M 266 247 " clip-rule="nonzero"/></clipPath><clipPath id="c0a1d67e7f"><path d="M 21.378906 183.246094 L 345.617188 165.027344 L 353.988281 314.042969 L 29.75 332.261719 Z M 21.378906 183.246094 " clip-rule="nonzero"/></clipPath><clipPath id="4f62df54da"><path d="M 21.378906 183.246094 L 345.617188 165.027344 L 353.988281 314.042969 L 29.75 332.261719 Z M 21.378906 183.246094 " clip-rule="nonzero"/></clipPath><clipPath id="3e618aa81e"><path d="M 267 247 L 268 247 L 268 248 L 267 248 Z M 267 247 " clip-rule="nonzero"/></clipPath><clipPath id="8734dc06fa"><path d="M 21.378906 183.246094 L 345.617188 165.027344 L 353.988281 314.042969 L 29.75 332.261719 Z M 21.378906 183.246094 " clip-rule="nonzero"/></clipPath><clipPath id="fedf2b71ce"><path d="M 21.378906 183.246094 L 345.617188 165.027344 L 353.988281 314.042969 L 29.75 332.261719 Z M 21.378906 183.246094 " clip-rule="nonzero"/></clipPath><clipPath id="0224ea25e3"><path d="M 264 248 L 265 248 L 265 249 L 264 249 Z M 264 248 " clip-rule="nonzero"/></clipPath><clipPath id="12dca12f76"><path d="M 21.378906 183.246094 L 345.617188 165.027344 L 353.988281 314.042969 L 29.75 332.261719 Z M 21.378906 183.246094 " clip-rule="nonzero"/></clipPath><clipPath id="7e28f70569"><path d="M 21.378906 183.246094 L 345.617188 165.027344 L 353.988281 314.042969 L 29.75 332.261719 Z M 21.378906 183.246094 " clip-rule="nonzero"/></clipPath><clipPath id="8df94f78a7"><path d="M 267 246 L 270 246 L 270 248 L 267 248 Z M 267 246 " clip-rule="nonzero"/></clipPath><clipPath id="abec353903"><path d="M 21.378906 183.246094 L 345.617188 165.027344 L 353.988281 314.042969 L 29.75 332.261719 Z M 21.378906 183.246094 " clip-rule="nonzero"/></clipPath><clipPath id="8ee17aae5b"><path d="M 21.378906 183.246094 L 345.617188 165.027344 L 353.988281 314.042969 L 29.75 332.261719 Z M 21.378906 183.246094 " clip-rule="nonzero"/></clipPath><clipPath id="8a7d5f849e"><path d="M 264 248 L 265 248 L 265 249 L 264 249 Z M 264 248 " clip-rule="nonzero"/></clipPath><clipPath id="bbbef0a62d"><path d="M 21.378906 183.246094 L 345.617188 165.027344 L 353.988281 314.042969 L 29.75 332.261719 Z M 21.378906 183.246094 " clip-rule="nonzero"/></clipPath><clipPath id="3eeeca0aa7"><path d="M 21.378906 183.246094 L 345.617188 165.027344 L 353.988281 314.042969 L 29.75 332.261719 Z M 21.378906 183.246094 " clip-rule="nonzero"/></clipPath><clipPath id="7c7e52b909"><path d="M 264 247 L 267 247 L 267 249 L 264 249 Z M 264 247 " clip-rule="nonzero"/></clipPath><clipPath id="f70aaa7106"><path d="M 21.378906 183.246094 L 345.617188 165.027344 L 353.988281 314.042969 L 29.75 332.261719 Z M 21.378906 183.246094 " clip-rule="nonzero"/></clipPath><clipPath id="a3264e834d"><path d="M 21.378906 183.246094 L 345.617188 165.027344 L 353.988281 314.042969 L 29.75 332.261719 Z M 21.378906 183.246094 " clip-rule="nonzero"/></clipPath><clipPath id="7437a4b5bd"><path d="M 281 259 L 282 259 L 282 261 L 281 261 Z M 281 259 " clip-rule="nonzero"/></clipPath><clipPath id="fa34dfa7f1"><path d="M 21.378906 183.246094 L 345.617188 165.027344 L 353.988281 314.042969 L 29.75 332.261719 Z M 21.378906 183.246094 " clip-rule="nonzero"/></clipPath><clipPath id="c16fa289e4"><path d="M 21.378906 183.246094 L 345.617188 165.027344 L 353.988281 314.042969 L 29.75 332.261719 Z M 21.378906 183.246094 " clip-rule="nonzero"/></clipPath><clipPath id="043fbb79a5"><path d="M 202 220 L 319 220 L 319 291 L 202 291 Z M 202 220 " clip-rule="nonzero"/></clipPath><clipPath id="798bed5570"><path d="M 21.378906 183.246094 L 345.617188 165.027344 L 353.988281 314.042969 L 29.75 332.261719 Z M 21.378906 183.246094 " clip-rule="nonzero"/></clipPath><clipPath id="0e46303368"><path d="M 21.378906 183.246094 L 345.617188 165.027344 L 353.988281 314.042969 L 29.75 332.261719 Z M 21.378906 183.246094 " clip-rule="nonzero"/></clipPath><clipPath id="05b344317a"><path d="M 273 260 L 282 260 L 282 263 L 273 263 Z M 273 260 " clip-rule="nonzero"/></clipPath><clipPath id="29e0d1cd64"><path d="M 21.378906 183.246094 L 345.617188 165.027344 L 353.988281 314.042969 L 29.75 332.261719 Z M 21.378906 183.246094 " clip-rule="nonzero"/></clipPath><clipPath id="80d1fca6f6"><path d="M 21.378906 183.246094 L 345.617188 165.027344 L 353.988281 314.042969 L 29.75 332.261719 Z M 21.378906 183.246094 " clip-rule="nonzero"/></clipPath><clipPath id="d725229e79"><path d="M 273 262 L 274 262 L 274 263 L 273 263 Z M 273 262 " clip-rule="nonzero"/></clipPath><clipPath id="ef602c131b"><path d="M 21.378906 183.246094 L 345.617188 165.027344 L 353.988281 314.042969 L 29.75 332.261719 Z M 21.378906 183.246094 " clip-rule="nonzero"/></clipPath><clipPath id="bc8e941e0a"><path d="M 21.378906 183.246094 L 345.617188 165.027344 L 353.988281 314.042969 L 29.75 332.261719 Z M 21.378906 183.246094 " clip-rule="nonzero"/></clipPath><clipPath id="a30e6adf73"><path d="M 25 243 L 351 243 L 351 323 L 25 323 Z M 25 243 " clip-rule="nonzero"/></clipPath><clipPath id="694dd2cfc8"><path d="M 21.378906 183.246094 L 345.617188 165.027344 L 353.988281 314.042969 L 29.75 332.261719 Z M 21.378906 183.246094 " clip-rule="nonzero"/></clipPath><clipPath id="e7a3a5b671"><path d="M 21.378906 183.246094 L 345.617188 165.027344 L 353.988281 314.042969 L 29.75 332.261719 Z M 21.378906 183.246094 " clip-rule="nonzero"/></clipPath><clipPath id="f08aab4471"><path d="M 102 178 L 188 178 L 188 294 L 102 294 Z M 102 178 " clip-rule="nonzero"/></clipPath><clipPath id="25c36558ea"><path d="M 21.378906 183.246094 L 345.617188 165.027344 L 353.988281 314.042969 L 29.75 332.261719 Z M 21.378906 183.246094 " clip-rule="nonzero"/></clipPath><clipPath id="a3c220a695"><path d="M 21.378906 183.246094 L 345.617188 165.027344 L 353.988281 314.042969 L 29.75 332.261719 Z M 21.378906 183.246094 " clip-rule="nonzero"/></clipPath><clipPath id="bdbcb86001"><path d="M 134 234 L 137 234 L 137 236 L 134 236 Z M 134 234 " clip-rule="nonzero"/></clipPath><clipPath id="bf6f017719"><path d="M 21.378906 183.246094 L 345.617188 165.027344 L 353.988281 314.042969 L 29.75 332.261719 Z M 21.378906 183.246094 " clip-rule="nonzero"/></clipPath><clipPath id="74e6a465ee"><path d="M 21.378906 183.246094 L 345.617188 165.027344 L 353.988281 314.042969 L 29.75 332.261719 Z M 21.378906 183.246094 " clip-rule="nonzero"/></clipPath><clipPath id="c11faa3050"><path d="M 109 217 L 110 217 L 110 218 L 109 218 Z M 109 217 " clip-rule="nonzero"/></clipPath><clipPath id="5a56de6030"><path d="M 21.378906 183.246094 L 345.617188 165.027344 L 353.988281 314.042969 L 29.75 332.261719 Z M 21.378906 183.246094 " clip-rule="nonzero"/></clipPath><clipPath id="a42bc6fa45"><path d="M 21.378906 183.246094 L 345.617188 165.027344 L 353.988281 314.042969 L 29.75 332.261719 Z M 21.378906 183.246094 " clip-rule="nonzero"/></clipPath><clipPath id="2dcba37050"><path d="M 87 190 L 185 190 L 185 296 L 87 296 Z M 87 190 " clip-rule="nonzero"/></clipPath><clipPath id="2bb0cd9b9a"><path d="M 21.378906 183.246094 L 345.617188 165.027344 L 353.988281 314.042969 L 29.75 332.261719 Z M 21.378906 183.246094 " clip-rule="nonzero"/></clipPath><clipPath id="32018addef"><path d="M 21.378906 183.246094 L 345.617188 165.027344 L 353.988281 314.042969 L 29.75 332.261719 Z M 21.378906 183.246094 " clip-rule="nonzero"/></clipPath><clipPath id="c26f9d1f3a"><path d="M 69 203 L 167 203 L 167 280 L 69 280 Z M 69 203 " clip-rule="nonzero"/></clipPath><clipPath id="f7206c7290"><path d="M 21.378906 183.246094 L 345.617188 165.027344 L 353.988281 314.042969 L 29.75 332.261719 Z M 21.378906 183.246094 " clip-rule="nonzero"/></clipPath><clipPath id="b70df257d0"><path d="M 21.378906 183.246094 L 345.617188 165.027344 L 353.988281 314.042969 L 29.75 332.261719 Z M 21.378906 183.246094 " clip-rule="nonzero"/></clipPath><clipPath id="26607f8362"><path d="M 56 224 L 175 224 L 175 292 L 56 292 Z M 56 224 " clip-rule="nonzero"/></clipPath><clipPath id="76ab662561"><path d="M 21.378906 183.246094 L 345.617188 165.027344 L 353.988281 314.042969 L 29.75 332.261719 Z M 21.378906 183.246094 " clip-rule="nonzero"/></clipPath><clipPath id="c31ee47f5b"><path d="M 21.378906 183.246094 L 345.617188 165.027344 L 353.988281 314.042969 L 29.75 332.261719 Z M 21.378906 183.246094 " clip-rule="nonzero"/></clipPath><clipPath id="696ce4fa71"><path d="M 78 240 L 79 240 L 79 241 L 78 241 Z M 78 240 " clip-rule="nonzero"/></clipPath><clipPath id="c8f5d9d9e5"><path d="M 21.378906 183.246094 L 345.617188 165.027344 L 353.988281 314.042969 L 29.75 332.261719 Z M 21.378906 183.246094 " clip-rule="nonzero"/></clipPath><clipPath id="7e7da3f919"><path d="M 21.378906 183.246094 L 345.617188 165.027344 L 353.988281 314.042969 L 29.75 332.261719 Z M 21.378906 183.246094 " clip-rule="nonzero"/></clipPath><clipPath id="583c228d33"><path d="M 183 138 L 255 138 L 255 253 L 183 253 Z M 183 138 " clip-rule="nonzero"/></clipPath><clipPath id="bcfd2f3e30"><path d="M 102.980469 77.261719 L 237.058594 51.675781 L 272.207031 235.851562 L 138.125 261.4375 Z M 102.980469 77.261719 " clip-rule="nonzero"/></clipPath><clipPath id="878fa1da91"><path d="M 102.980469 77.261719 L 237.058594 51.675781 L 272.207031 235.851562 L 138.125 261.4375 Z M 102.980469 77.261719 " clip-rule="nonzero"/></clipPath><clipPath id="70a31a3764"><path d="M 240.894531 183.222656 C 234.785156 190.738281 226.640625 196.308594 218.496094 201.546875 C 210.347656 206.785156 201.964844 211.863281 195.09375 218.699219 C 195.039062 218.757812 194.984375 218.800781 194.933594 218.855469 C 186.746094 227.054688 182.710938 238.511719 183.753906 250.046875 C 183.820312 250.828125 183.90625 251.605469 183.996094 252.398438 C 184.449219 242.722656 189.800781 233.808594 196.671875 226.972656 C 203.542969 220.136719 211.910156 215.0625 220.074219 209.820312 C 228.21875 204.582031 236.367188 199.027344 242.472656 191.492188 C 254.1875 177.078125 256.921875 156.710938 252.289062 138.683594 C 254.292969 154.433594 250.84375 170.96875 240.894531 183.222656 Z M 240.894531 183.222656 " clip-rule="nonzero"/></clipPath><linearGradient x1="10163.4121" gradientTransform="matrix(-0.153199, 0.0292351, 0.0292351, 0.153199, 1749.406863, -236.927424)" y1="482.674381" x2="10163.4121" gradientUnits="userSpaceOnUse" y2="1288.047902" id="7e0b6bd383"><stop stop-opacity="1" stop-color="rgb(72.128296%, 80.210876%, 91.02478%)" offset="0"/><stop stop-opacity="1" stop-color="rgb(72.018433%, 80.133057%, 90.989685%)" offset="0.03125"/><stop stop-opacity="1" stop-color="rgb(71.798706%, 79.975891%, 90.917969%)" offset="0.0625"/><stop stop-opacity="1" stop-color="rgb(71.578979%, 79.820251%, 90.847778%)" offset="0.09375"/><stop stop-opacity="1" stop-color="rgb(71.357727%, 79.664612%, 90.776062%)" offset="0.125"/><stop stop-opacity="1" stop-color="rgb(71.138%, 79.507446%, 90.705872%)" offset="0.15625"/><stop stop-opacity="1" stop-color="rgb(70.918274%, 79.351807%, 90.634155%)" offset="0.1875"/><stop stop-opacity="1" stop-color="rgb(70.698547%, 79.194641%, 90.563965%)" offset="0.21875"/><stop stop-opacity="1" stop-color="rgb(70.477295%, 79.039001%, 90.493774%)" offset="0.25"/><stop stop-opacity="1" stop-color="rgb(70.257568%, 78.881836%, 90.422058%)" offset="0.28125"/><stop stop-opacity="1" stop-color="rgb(70.037842%, 78.726196%, 90.351868%)" offset="0.3125"/><stop stop-opacity="1" stop-color="rgb(69.818115%, 78.570557%, 90.280151%)" offset="0.34375"/><stop stop-opacity="1" stop-color="rgb(69.596863%, 78.413391%, 90.209961%)" offset="0.375"/><stop stop-opacity="1" stop-color="rgb(69.377136%, 78.257751%, 90.138245%)" offset="0.40625"/><stop stop-opacity="1" stop-color="rgb(69.15741%, 78.100586%, 90.068054%)" offset="0.4375"/><stop stop-opacity="1" stop-color="rgb(68.936157%, 77.944946%, 89.996338%)" offset="0.46875"/><stop stop-opacity="1" stop-color="rgb(68.716431%, 77.787781%, 89.926147%)" offset="0.5"/><stop stop-opacity="1" stop-color="rgb(68.496704%, 77.632141%, 89.854431%)" offset="0.53125"/><stop stop-opacity="1" stop-color="rgb(68.276978%, 77.476501%, 89.784241%)" offset="0.5625"/><stop stop-opacity="1" stop-color="rgb(68.055725%, 77.319336%, 89.71405%)" offset="0.59375"/><stop stop-opacity="1" stop-color="rgb(67.835999%, 77.163696%, 89.642334%)" offset="0.625"/><stop stop-opacity="1" stop-color="rgb(67.616272%, 77.006531%, 89.572144%)" offset="0.65625"/><stop stop-opacity="1" stop-color="rgb(67.396545%, 76.850891%, 89.500427%)" offset="0.6875"/><stop stop-opacity="1" stop-color="rgb(67.175293%, 76.693726%, 89.430237%)" offset="0.71875"/><stop stop-opacity="1" stop-color="rgb(66.955566%, 76.538086%, 89.358521%)" offset="0.75"/><stop stop-opacity="1" stop-color="rgb(66.73584%, 76.382446%, 89.28833%)" offset="0.78125"/><stop stop-opacity="1" stop-color="rgb(66.514587%, 76.225281%, 89.216614%)" offset="0.8125"/><stop stop-opacity="1" stop-color="rgb(66.294861%, 76.069641%, 89.146423%)" offset="0.84375"/><stop stop-opacity="1" stop-color="rgb(66.075134%, 75.912476%, 89.074707%)" offset="0.875"/><stop stop-opacity="1" stop-color="rgb(65.855408%, 75.756836%, 89.004517%)" offset="0.90625"/><stop stop-opacity="1" stop-color="rgb(65.634155%, 75.59967%, 88.934326%)" offset="0.9375"/><stop stop-opacity="1" stop-color="rgb(65.414429%, 75.444031%, 88.86261%)" offset="0.96875"/><stop stop-opacity="1" stop-color="rgb(65.194702%, 75.288391%, 88.792419%)" offset="1"/></linearGradient><clipPath id="fee1dae3fa"><path d="M 164 86 L 245 86 L 245 238 L 164 238 Z M 164 86 " clip-rule="nonzero"/></clipPath><clipPath id="429612e1a4"><path d="M 102.980469 77.261719 L 237.058594 51.675781 L 272.207031 235.851562 L 138.125 261.4375 Z M 102.980469 77.261719 " clip-rule="nonzero"/></clipPath><clipPath id="c946eea578"><path d="M 102.980469 77.261719 L 237.058594 51.675781 L 272.207031 235.851562 L 138.125 261.4375 Z M 102.980469 77.261719 " clip-rule="nonzero"/></clipPath><clipPath id="2dd7e3e4e4"><path d="M 241.96875 130.445312 C 237.03125 113.300781 225.617188 98.585938 212.144531 86.898438 C 217.621094 96.378906 214.753906 108.820312 208.449219 117.789062 C 202.15625 126.753906 192.984375 133.1875 184.59375 140.21875 C 176.203125 147.25 168.101562 155.558594 165.277344 166.132812 C 163.109375 174.246094 164.316406 182.972656 167.15625 190.878906 C 169.027344 196.09375 171.570312 201.023438 174.347656 205.84375 C 175.699219 199.1875 177.992188 192.730469 181.179688 186.726562 C 187.71875 174.410156 196.867188 163.597656 206.421875 153.421875 C 224.683594 133.964844 224.882812 127.371094 223.160156 115.835938 C 227.078125 124.710938 224.265625 135.28125 219.066406 143.46875 C 213.863281 151.652344 206.53125 158.246094 200.355469 165.726562 C 184.003906 185.550781 176.136719 212.140625 179.070312 237.667969 C 179.503906 228.691406 184.449219 220.414062 190.828125 214.082031 C 197.207031 207.738281 204.980469 203.03125 212.53125 198.175781 C 220.097656 193.316406 227.65625 188.160156 233.308594 181.175781 C 244.578125 167.339844 246.890625 147.589844 241.96875 130.445312 Z M 241.96875 130.445312 " clip-rule="nonzero"/></clipPath><linearGradient x1="10208.751" gradientTransform="matrix(-0.153199, 0.0292351, 0.0292351, 0.153199, 1749.406863, -236.927424)" y1="132.968207" x2="10208.751" gradientUnits="userSpaceOnUse" y2="1183.211372" id="514cdf238d"><stop stop-opacity="1" stop-color="rgb(75.187683%, 82.383728%, 92.010498%)" offset="0"/><stop stop-opacity="1" stop-color="rgb(75.04425%, 82.281494%, 91.963196%)" offset="0.03125"/><stop stop-opacity="1" stop-color="rgb(74.757385%, 82.077026%, 91.870117%)" offset="0.0625"/><stop stop-opacity="1" stop-color="rgb(74.47052%, 81.872559%, 91.778564%)" offset="0.09375"/><stop stop-opacity="1" stop-color="rgb(74.183655%, 81.669617%, 91.685486%)" offset="0.125"/><stop stop-opacity="1" stop-color="rgb(73.895264%, 81.465149%, 91.593933%)" offset="0.15625"/><stop stop-opacity="1" stop-color="rgb(73.608398%, 81.262207%, 91.500854%)" offset="0.1875"/><stop stop-opacity="1" stop-color="rgb(73.321533%, 81.057739%, 91.409302%)" offset="0.21875"/><stop stop-opacity="1" stop-color="rgb(73.034668%, 80.854797%, 91.316223%)" offset="0.25"/><stop stop-opacity="1" stop-color="rgb(72.747803%, 80.65033%, 91.223145%)" offset="0.28125"/><stop stop-opacity="1" stop-color="rgb(72.460938%, 80.445862%, 91.131592%)" offset="0.3125"/><stop stop-opacity="1" stop-color="rgb(72.174072%, 80.24292%, 91.038513%)" offset="0.34375"/><stop stop-opacity="1" stop-color="rgb(71.885681%, 80.038452%, 90.94696%)" offset="0.375"/><stop stop-opacity="1" stop-color="rgb(71.598816%, 79.83551%, 90.853882%)" offset="0.40625"/><stop stop-opacity="1" stop-color="rgb(71.311951%, 79.631042%, 90.762329%)" offset="0.4375"/><stop stop-opacity="1" stop-color="rgb(71.025085%, 79.428101%, 90.66925%)" offset="0.46875"/><stop stop-opacity="1" stop-color="rgb(70.73822%, 79.223633%, 90.576172%)" offset="0.5"/><stop stop-opacity="1" stop-color="rgb(70.451355%, 79.019165%, 90.484619%)" offset="0.53125"/><stop stop-opacity="1" stop-color="rgb(70.16449%, 78.816223%, 90.391541%)" offset="0.5625"/><stop stop-opacity="1" stop-color="rgb(69.877625%, 78.611755%, 90.299988%)" offset="0.59375"/><stop stop-opacity="1" stop-color="rgb(69.589233%, 78.408813%, 90.206909%)" offset="0.625"/><stop stop-opacity="1" stop-color="rgb(69.302368%, 78.204346%, 90.113831%)" offset="0.65625"/><stop stop-opacity="1" stop-color="rgb(69.015503%, 78.001404%, 90.022278%)" offset="0.6875"/><stop stop-opacity="1" stop-color="rgb(68.728638%, 77.796936%, 89.929199%)" offset="0.71875"/><stop stop-opacity="1" stop-color="rgb(68.441772%, 77.592468%, 89.837646%)" offset="0.75"/><stop stop-opacity="1" stop-color="rgb(68.154907%, 77.389526%, 89.744568%)" offset="0.78125"/><stop stop-opacity="1" stop-color="rgb(67.868042%, 77.185059%, 89.653015%)" offset="0.8125"/><stop stop-opacity="1" stop-color="rgb(67.579651%, 76.982117%, 89.559937%)" offset="0.84375"/><stop stop-opacity="1" stop-color="rgb(67.292786%, 76.777649%, 89.466858%)" offset="0.875"/><stop stop-opacity="1" stop-color="rgb(67.00592%, 76.574707%, 89.375305%)" offset="0.90625"/><stop stop-opacity="1" stop-color="rgb(66.719055%, 76.370239%, 89.282227%)" offset="0.9375"/><stop stop-opacity="1" stop-color="rgb(66.43219%, 76.165771%, 89.190674%)" offset="0.96875"/><stop stop-opacity="1" stop-color="rgb(66.145325%, 75.96283%, 89.097595%)" offset="1"/></linearGradient><clipPath id="9b4407b727"><path d="M 115 70 L 189 70 L 189 182 L 115 182 Z M 115 70 " clip-rule="nonzero"/></clipPath><clipPath id="189165cd24"><path d="M 102.980469 77.261719 L 237.058594 51.675781 L 272.207031 235.851562 L 138.125 261.4375 Z M 102.980469 77.261719 " clip-rule="nonzero"/></clipPath><clipPath id="de35bc1bc5"><path d="M 102.980469 77.261719 L 237.058594 51.675781 L 272.207031 235.851562 L 138.125 261.4375 Z M 102.980469 77.261719 " clip-rule="nonzero"/></clipPath></defs><g clip-path="url(#c17de00bcb)"><g clip-path="url(#6dc2eaf9ae)"><g clip-path="url(#ee3282eb6d)"><path fill="#38b6ff" d="M 240.386719 232.640625 C 240.125 232.839844 239.519531 233.300781 238.707031 233.921875 C 238.707031 233.917969 238.714844 233.914062 238.714844 233.910156 C 239.632812 233.214844 240.160156 232.816406 240.386719 232.640625 Z M 240.386719 232.640625 " fill-opacity="1" fill-rule="nonzero"/></g></g></g><g clip-path="url(#4e8d2d8504)"><g clip-path="url(#5b694b96f0)"><g clip-path="url(#f11a098e8c)"><path fill="#38b6ff" d="M 264.621094 210.605469 L 271.246094 176.285156 C 270.023438 178.679688 268.644531 180.945312 267.25 183.167969 C 262.039062 191.484375 256.214844 199.136719 250.082031 206.277344 C 245.546875 211.558594 240.8125 216.558594 235.929688 221.285156 C 230.40625 226.628906 224.546875 231.347656 219.148438 236.910156 C 205.203125 251.261719 193.363281 270.691406 189.59375 293.914062 C 195.527344 279.960938 209.121094 256.425781 238.703125 233.921875 C 235.414062 236.421875 228.746094 241.492188 227.742188 242.257812 C 228.371094 241.78125 231.425781 239.457031 238.714844 233.910156 C 249.246094 225.898438 257.839844 217.816406 264.621094 210.605469 Z M 227.714844 242.28125 C 227.589844 242.375 227.578125 242.382812 227.714844 242.28125 Z M 227.714844 242.28125 " fill-opacity="1" fill-rule="nonzero"/></g></g></g><g clip-path="url(#93508e713d)"><g clip-path="url(#d4a7760554)"><g clip-path="url(#e72cad3d3b)"><path fill="#38b6ff" d="M 240.472656 232.574219 C 240.539062 232.527344 240.539062 232.527344 240.472656 232.574219 Z M 240.472656 232.574219 " fill-opacity="1" fill-rule="nonzero"/><path fill="#38b6ff" d="M 240.386719 232.640625 C 240.421875 232.613281 240.449219 232.59375 240.472656 232.574219 C 240.449219 232.59375 240.421875 232.613281 240.386719 232.640625 Z M 240.386719 232.640625 " fill-opacity="1" fill-rule="nonzero"/></g></g></g><g clip-path="url(#96d0d40f71)"><g clip-path="url(#a412f6c104)"><g clip-path="url(#690fb03e2d)"><path fill="#38b6ff" d="M 254.78125 236.597656 C 253.980469 237.082031 252.773438 237.820312 251.867188 238.371094 C 251.871094 238.371094 251.871094 238.371094 251.871094 238.367188 C 253.261719 237.523438 254.195312 236.957031 254.78125 236.597656 Z M 254.78125 236.597656 " fill-opacity="1" fill-rule="nonzero"/></g></g></g><g clip-path="url(#6ac9740e46)"><g clip-path="url(#471ad82456)"><g clip-path="url(#5fd3c1797a)"><path fill="#38b6ff" d="M 251.875 238.371094 C 249.933594 239.554688 250.601562 239.148438 251.871094 238.375 C 230.1875 251.59375 209.515625 269.667969 193.910156 293.675781 C 193.527344 294.265625 193.144531 294.859375 192.769531 295.460938 C 201.625 275.078125 215.578125 258.847656 230.265625 245.945312 C 236.011719 240.894531 242.074219 236.546875 247.90625 231.6875 C 253.09375 227.371094 258.140625 222.761719 263.011719 217.84375 C 271.105469 209.675781 278.914062 200.691406 285.527344 190.445312 C 286.027344 189.671875 286.523438 188.894531 286.992188 188.082031 L 279.460938 218.800781 C 271.890625 224.980469 262.617188 231.820312 251.875 238.371094 Z M 251.875 238.371094 " fill-opacity="1" fill-rule="nonzero"/></g></g></g><g clip-path="url(#92023c00de)"><g clip-path="url(#d34c28eb4a)"><g clip-path="url(#b0e65aab0e)"><path fill="#38b6ff" d="M 255.5625 236.121094 C 255.621094 236.085938 255.625 236.082031 255.5625 236.121094 Z M 255.5625 236.121094 " fill-opacity="1" fill-rule="nonzero"/></g></g></g><g clip-path="url(#6f6ebe1654)"><g clip-path="url(#c516a200ea)"><g clip-path="url(#565e009d40)"><path fill="#38b6ff" d="M 254.78125 236.597656 C 254.816406 236.574219 254.851562 236.554688 254.886719 236.53125 C 254.851562 236.554688 254.820312 236.574219 254.78125 236.597656 Z M 254.78125 236.597656 " fill-opacity="1" fill-rule="nonzero"/></g></g></g><g clip-path="url(#72e407f17a)"><g clip-path="url(#75dd732d5f)"><g clip-path="url(#f23cacbc9d)"><path fill="#38b6ff" d="M 254.886719 236.53125 C 255.257812 236.304688 255.476562 236.175781 255.5625 236.121094 C 255.464844 236.179688 255.222656 236.328125 254.886719 236.53125 Z M 254.886719 236.53125 " fill-opacity="1" fill-rule="nonzero"/></g></g></g><g clip-path="url(#1b83a300ca)"><g clip-path="url(#9c3f63116d)"><g clip-path="url(#a60cc13c30)"><path fill="#38b6ff" d="M 264.042969 248.519531 C 263.929688 248.554688 263.839844 248.582031 263.765625 248.605469 C 263.839844 248.582031 263.933594 248.554688 264.042969 248.519531 C 244.875 254.335938 226.429688 264.476562 210.011719 278.660156 C 219.902344 267.273438 230.910156 257.585938 242.488281 249.398438 C 248.625 245.058594 255.003906 241.382812 261.222656 237.25 C 266.933594 233.460938 272.535156 229.394531 278.019531 225.070312 C 287.308594 217.742188 296.609375 209.773438 304.773438 200.359375 L 296.679688 233.382812 C 288.28125 238.800781 277.339844 244.488281 264.042969 248.519531 Z M 264.042969 248.519531 " fill-opacity="1" fill-rule="nonzero"/></g></g></g><g clip-path="url(#01b61bda6d)"><g clip-path="url(#1e24f29b37)"><g clip-path="url(#c8ffb160cf)"><path fill="#38b6ff" d="M 269.203125 246.957031 C 269.230469 246.949219 269.234375 246.949219 269.203125 246.957031 Z M 269.203125 246.957031 " fill-opacity="1" fill-rule="nonzero"/></g></g></g><g clip-path="url(#2f8aa96656)"><g clip-path="url(#4a0318269e)"><g clip-path="url(#2aa61ade1a)"><path fill="#38b6ff" d="M 264.085938 248.507812 C 264.105469 248.503906 264.132812 248.496094 264.152344 248.488281 C 264.128906 248.496094 264.109375 248.5 264.085938 248.507812 Z M 264.085938 248.507812 " fill-opacity="1" fill-rule="nonzero"/></g></g></g><g clip-path="url(#e2f01a22e7)"><g clip-path="url(#c0a1d67e7f)"><g clip-path="url(#4f62df54da)"><path fill="#38b6ff" d="M 266.679688 247.722656 C 266.800781 247.683594 266.925781 247.644531 267.046875 247.609375 C 266.929688 247.644531 266.800781 247.683594 266.679688 247.722656 Z M 266.679688 247.722656 " fill-opacity="1" fill-rule="nonzero"/></g></g></g><g clip-path="url(#3e618aa81e)"><g clip-path="url(#8734dc06fa)"><g clip-path="url(#fedf2b71ce)"><path fill="#38b6ff" d="M 267.046875 247.609375 C 267.335938 247.519531 267.582031 247.445312 267.8125 247.378906 C 267.570312 247.453125 267.3125 247.527344 267.046875 247.609375 Z M 267.046875 247.609375 " fill-opacity="1" fill-rule="nonzero"/></g></g></g><g clip-path="url(#0224ea25e3)"><g clip-path="url(#12dca12f76)"><g clip-path="url(#7e28f70569)"><path fill="#38b6ff" d="M 264.085938 248.507812 C 264.070312 248.511719 264.058594 248.515625 264.042969 248.519531 C 264.058594 248.515625 264.070312 248.511719 264.085938 248.507812 Z M 264.085938 248.507812 " fill-opacity="1" fill-rule="nonzero"/></g></g></g><g clip-path="url(#8df94f78a7)"><g clip-path="url(#abec353903)"><g clip-path="url(#8ee17aae5b)"><path fill="#38b6ff" d="M 267.808594 247.378906 C 268.527344 247.160156 269.082031 246.992188 269.203125 246.957031 C 269.121094 246.980469 268.699219 247.109375 267.808594 247.378906 Z M 267.808594 247.378906 " fill-opacity="1" fill-rule="nonzero"/></g></g></g><g clip-path="url(#8a7d5f849e)"><g clip-path="url(#bbbef0a62d)"><g clip-path="url(#3eeeca0aa7)"><path fill="#38b6ff" d="M 264.152344 248.488281 C 264.292969 248.445312 264.414062 248.410156 264.546875 248.367188 C 264.402344 248.410156 264.269531 248.449219 264.152344 248.488281 Z M 264.152344 248.488281 " fill-opacity="1" fill-rule="nonzero"/><path fill="#38b6ff" d="M 264.546875 248.367188 C 264.636719 248.339844 264.726562 248.3125 264.824219 248.28125 C 264.734375 248.3125 264.636719 248.339844 264.546875 248.367188 Z M 264.546875 248.367188 " fill-opacity="1" fill-rule="nonzero"/></g></g></g><g clip-path="url(#7c7e52b909)"><g clip-path="url(#f70aaa7106)"><g clip-path="url(#a3264e834d)"><path fill="#38b6ff" d="M 264.824219 248.28125 C 265.542969 248.066406 266.160156 247.878906 266.679688 247.71875 C 266.035156 247.914062 265.375 248.117188 264.824219 248.28125 Z M 264.824219 248.28125 " fill-opacity="1" fill-rule="nonzero"/></g></g></g><g clip-path="url(#7437a4b5bd)"><g clip-path="url(#fa34dfa7f1)"><g clip-path="url(#c16fa289e4)"><path fill="#38b6ff" d="M 281.539062 260.015625 C 281.609375 259.992188 281.613281 259.988281 281.539062 260.015625 Z M 281.539062 260.015625 " fill-opacity="1" fill-rule="nonzero"/></g></g></g><g clip-path="url(#043fbb79a5)"><g clip-path="url(#798bed5570)"><g clip-path="url(#0e46303368)"><path fill="#38b6ff" d="M 273.777344 262.359375 C 261.738281 266.089844 249.757812 270.082031 237.894531 274.671875 C 226.054688 279.253906 214.230469 284.238281 202.902344 290.691406 C 213.15625 280.371094 224.445312 271.792969 236.300781 265.046875 C 242.425781 261.566406 248.707031 258.574219 255.109375 256.089844 C 261.726562 253.523438 268.503906 251.765625 275.113281 249.148438 C 285.167969 245.164062 294.949219 239.890625 304.132812 233.214844 C 309.160156 229.5625 314.242188 225.558594 318.628906 220.644531 L 311.972656 247.789062 C 303.742188 251.863281 291.40625 257.03125 273.777344 262.359375 Z M 273.777344 262.359375 " fill-opacity="1" fill-rule="nonzero"/></g></g></g><g clip-path="url(#05b344317a)"><g clip-path="url(#29e0d1cd64)"><g clip-path="url(#80d1fca6f6)"><path fill="#38b6ff" d="M 273.832031 262.34375 C 279.101562 260.75 281.183594 260.121094 281.539062 260.015625 C 280.859375 260.21875 274.488281 262.144531 273.832031 262.34375 Z M 273.832031 262.34375 " fill-opacity="1" fill-rule="nonzero"/></g></g></g><g clip-path="url(#d725229e79)"><g clip-path="url(#ef602c131b)"><g clip-path="url(#bc8e941e0a)"><path fill="#38b6ff" d="M 273.777344 262.359375 C 273.777344 262.359375 273.796875 262.351562 273.832031 262.34375 C 273.8125 262.347656 273.796875 262.351562 273.777344 262.359375 Z M 273.777344 262.359375 " fill-opacity="1" fill-rule="nonzero"/></g></g></g><g clip-path="url(#a30e6adf73)"><g clip-path="url(#694dd2cfc8)"><g clip-path="url(#e7a3a5b671)"><path fill="#b4cae7" d="M 284.683594 285.25 L 277.164062 288.675781 L 202.71875 322.5625 L 189.085938 322.757812 L 188.773438 322.761719 L 175.140625 322.957031 L 99.757812 291.203125 L 92.140625 287.992188 L 35.703125 264.222656 L 25.699219 260.011719 L 32.472656 256.089844 L 47.886719 247.164062 C 49.941406 248.792969 52.195312 250.050781 54.394531 251.273438 C 59.496094 254.097656 64.742188 256.445312 70.027344 258.589844 C 81.421875 263.203125 93.03125 266.621094 104.683594 269.855469 C 118.335938 273.644531 131.921875 277.9375 145.34375 283.011719 C 151.957031 285.515625 158.535156 288.203125 165.023438 291.242188 C 171.117188 294.09375 177.210938 297.179688 182.910156 301.242188 C 184.933594 302.679688 186.929688 304.25 188.695312 306.203125 C 193.417969 300.648438 199.722656 297.179688 205.507812 293.960938 C 211.742188 290.492188 218.128906 287.460938 224.558594 284.667969 C 237.613281 278.988281 250.878906 274.144531 264.238281 269.816406 C 276.578125 265.8125 288.976562 262.246094 301.117188 257.273438 C 309.910156 253.671875 318.984375 249.816406 326.992188 243.777344 C 327.25 243.585938 327.507812 243.382812 327.757812 243.175781 L 343.421875 251.660156 L 350.304688 255.386719 L 340.425781 259.886719 Z M 284.683594 285.25 " fill-opacity="1" fill-rule="nonzero"/></g></g></g><g clip-path="url(#f08aab4471)"><g clip-path="url(#25c36558ea)"><g clip-path="url(#a3c220a695)"><path fill="#38b6ff" d="M 187.441406 293.949219 C 186.09375 286.914062 183.964844 280.144531 181.273438 273.8125 C 176.40625 262.363281 169.710938 252.382812 162.132812 243.902344 C 157.066406 238.238281 151.585938 233.464844 146 228.761719 C 140.449219 224.082031 135.046875 219.082031 129.84375 213.75 C 122.464844 206.195312 115.4375 197.980469 109.070312 188.964844 C 106.753906 185.6875 104.453125 182.320312 102.46875 178.691406 L 110.066406 212.808594 C 117.050781 219.824219 125.871094 227.660156 136.625 235.367188 C 143.785156 240.5 146.945312 242.761719 147.75 243.335938 C 146.484375 242.429688 139.910156 237.71875 136.636719 235.371094 C 166.851562 257.027344 181.109375 280.167969 187.441406 293.949219 Z M 147.867188 243.417969 C 148.003906 243.519531 147.992188 243.511719 147.867188 243.417969 Z M 147.867188 243.417969 " fill-opacity="1" fill-rule="nonzero"/></g></g></g><g clip-path="url(#bdbcb86001)"><g clip-path="url(#bf6f017719)"><g clip-path="url(#74e6a465ee)"><path fill="#38b6ff" d="M 136.628906 235.367188 C 136.632812 235.371094 136.636719 235.367188 136.636719 235.371094 C 134.546875 233.878906 133.800781 233.34375 136.628906 235.367188 Z M 136.628906 235.367188 " fill-opacity="1" fill-rule="nonzero"/></g></g></g><g clip-path="url(#c11faa3050)"><g clip-path="url(#5a56de6030)"><g clip-path="url(#a42bc6fa45)"><path fill="#38b6ff" d="M 109.398438 217.589844 C 109.417969 217.609375 109.433594 217.625 109.453125 217.640625 C 109.445312 217.632812 109.433594 217.625 109.425781 217.613281 C 109.414062 217.605469 109.40625 217.597656 109.398438 217.589844 Z M 109.398438 217.589844 " fill-opacity="1" fill-rule="nonzero"/></g></g></g><g clip-path="url(#2dcba37050)"><g clip-path="url(#2bb0cd9b9a)"><g clip-path="url(#32018addef)"><path fill="#38b6ff" d="M 109.425781 217.613281 C 109.75 217.933594 109.617188 217.804688 109.453125 217.640625 C 114.355469 222.460938 119.425781 226.984375 124.636719 231.210938 C 130.558594 236.019531 136.753906 240.199219 142.707031 244.941406 C 152.355469 252.636719 161.519531 261.511719 169.601562 271.898438 C 175.15625 279.023438 180.238281 286.886719 184.316406 295.582031 C 168.683594 272.246094 148.148438 254.800781 126.761719 242.042969 C 116.101562 235.683594 105.585938 229.214844 95.46875 221.421875 L 87.070312 190.933594 C 88.75 193.648438 90.632812 196.171875 92.523438 198.632812 C 97.789062 205.480469 103.484375 211.753906 109.40625 217.59375 C 109.21875 217.410156 109.054688 217.246094 109.425781 217.613281 Z M 109.425781 217.613281 " fill-opacity="1" fill-rule="nonzero"/></g></g></g><g clip-path="url(#c26f9d1f3a)"><g clip-path="url(#f7206c7290)"><g clip-path="url(#b70df257d0)"><path fill="#38b6ff" d="M 112.023438 237.957031 C 118.332031 241.984375 124.824219 245.464844 131.121094 249.527344 C 142.976562 257.175781 154.359375 266.332031 164.675781 277.21875 C 165.320312 277.898438 165.957031 278.582031 166.59375 279.273438 C 155.308594 270.074219 143.148438 262.71875 130.546875 257.289062 C 117.75 251.773438 104.398438 249.25 91.671875 243.390625 C 87.265625 241.359375 82.921875 239.058594 78.671875 236.488281 L 69.640625 203.710938 C 77.460938 212.222656 86.238281 219.421875 95 226.078125 C 100.5625 230.3125 106.246094 234.269531 112.023438 237.957031 Z M 112.023438 237.957031 " fill-opacity="1" fill-rule="nonzero"/></g></g></g><g clip-path="url(#26607f8362)"><g clip-path="url(#76ab662561)"><g clip-path="url(#c31ee47f5b)"><path fill="#38b6ff" d="M 78.160156 240.972656 C 79.777344 241.929688 78.582031 241.222656 78.167969 240.976562 C 83.804688 244.324219 89.597656 247.207031 95.5 249.632812 C 102.003906 252.308594 108.617188 254.109375 115.238281 256.140625 C 128.308594 260.152344 141.019531 266.234375 153 274.25 C 160.320312 279.148438 167.382812 284.769531 174.046875 291.101562 C 161.238281 284.28125 147.875 279.246094 134.53125 274.660156 C 121.039062 270.023438 107.402344 266.421875 93.8125 262.351562 C 83.6875 259.324219 73.613281 255.835938 63.792969 251.328125 L 56.367188 224.382812 C 62.863281 231.253906 70.597656 236.464844 78.140625 240.957031 C 78.027344 240.890625 77.992188 240.871094 78.160156 240.972656 Z M 78.160156 240.972656 " fill-opacity="1" fill-rule="nonzero"/></g></g></g><g clip-path="url(#696ce4fa71)"><g clip-path="url(#c8f5d9d9e5)"><g clip-path="url(#7e7da3f919)"><path fill="#38b6ff" d="M 78.140625 240.960938 C 78.148438 240.964844 78.15625 240.96875 78.167969 240.972656 C 78.164062 240.972656 78.160156 240.972656 78.15625 240.96875 C 78.152344 240.96875 78.148438 240.960938 78.140625 240.960938 Z M 78.140625 240.960938 " fill-opacity="1" fill-rule="nonzero"/></g></g></g><g clip-path="url(#583c228d33)"><g clip-path="url(#bcfd2f3e30)"><g clip-path="url(#878fa1da91)"><g clip-path="url(#70a31a3764)"><path fill="url(#7e0b6bd383)" d="M 254.3125 125.019531 L 277.859375 248.402344 L 185.316406 266.0625 L 161.773438 142.679688 Z M 254.3125 125.019531 " fill-rule="nonzero"/></g></g></g></g><g clip-path="url(#fee1dae3fa)"><g clip-path="url(#429612e1a4)"><g clip-path="url(#c946eea578)"><g clip-path="url(#2dd7e3e4e4)"><path fill="url(#514cdf238d)" d="M 243.949219 71.472656 L 274.652344 232.367188 L 166.054688 253.09375 L 135.351562 92.195312 Z M 243.949219 71.472656 " fill-rule="nonzero"/></g></g></g></g><g clip-path="url(#9b4407b727)"><g clip-path="url(#189165cd24)"><g clip-path="url(#de35bc1bc5)"><path fill="#38b6ff" d="M 159.808594 162.683594 C 161.101562 157.816406 163.519531 153.433594 166.570312 149.4375 C 165.445312 148.367188 164.304688 147.3125 163.125 146.285156 C 155.796875 139.917969 147.488281 134.644531 140.996094 127.421875 C 134.519531 120.195312 129.984375 110.246094 132.398438 100.847656 C 133.265625 114.621094 136.71875 119.726562 155.125 135.140625 C 159.679688 138.96875 164.335938 142.734375 168.832031 146.65625 C 171.941406 143.0625 175.507812 139.792969 179.140625 136.765625 C 182.328125 134.09375 185.632812 131.511719 188.835938 128.835938 C 184.5625 124.839844 179.527344 121.496094 174.46875 118.523438 C 165.023438 112.976562 154.925781 108.136719 147.242188 100.332031 C 139.546875 92.527344 134.660156 80.742188 138.5 70.484375 C 127.132812 84.226562 118.304688 100.613281 116.273438 118.339844 C 114.242188 136.066406 119.773438 155.160156 133.15625 166.960938 C 139.894531 172.898438 148.203125 176.742188 156.46875 180.292969 C 157.644531 180.800781 158.820312 181.304688 159.996094 181.796875 C 158.476562 175.496094 158.15625 168.921875 159.808594 162.683594 Z M 159.808594 162.683594 " fill-opacity="1" fill-rule="nonzero"/></g></g></g></svg>